<svg xmlns="http://www.w3.org/2000/svg" width="55.317" height="61.153" viewBox="0 0 55.317 61.153">
  <g id="web-design" transform="translate(-24.43 0)">
    <path id="Path_55" data-name="Path 55" d="M74.922,7.953H74.2A5.228,5.228,0,0,0,65.39,2.322L61.622,7.953H29.255a4.83,4.83,0,0,0-4.825,4.825V43.625a4.83,4.83,0,0,0,4.825,4.825H48L46.58,54.4H43.524a3.616,3.616,0,0,0-3.612,3.612v.754H36.144a1.194,1.194,0,0,0,0,2.389H68.033a1.194,1.194,0,1,0,0-2.389H64.266V58.01A3.616,3.616,0,0,0,60.653,54.4H57.6L56.181,48.45H74.922a4.83,4.83,0,0,0,4.825-4.825V12.778a4.83,4.83,0,0,0-4.825-4.825Zm-17.113,21c-1.867,1.307-5.366-.47-8.707,1.313-.815-4.235-.3-8.217,3.942-9.1a7.6,7.6,0,0,1,1.641-.156l4.321,3.206c.627,1.824.392,3.621-1.2,4.733Zm1.2-12.8,3.381,2.508-2.6,3.17-3.061-2.271Zm8.362-12.5A2.839,2.839,0,1,1,71.929,7.03L63.91,16.807,60.343,14.16Zm-5.5,54.359v.754H42.3V58.01a1.225,1.225,0,0,1,1.224-1.224H60.653A1.225,1.225,0,0,1,61.877,58.01ZM55.141,54.4H49.036l1.416-5.948h3.274ZM77.358,43.625a2.439,2.439,0,0,1-2.436,2.436H29.255a2.439,2.439,0,0,1-2.436-2.436V38.032h3.413a1.194,1.194,0,1,0,0-2.389H26.819V12.778a2.439,2.439,0,0,1,2.436-2.436H60.023l-5.54,8.279a8.161,8.161,0,0,0-6.207,2.622c-2.082,2.43-2.447,6.248-1.087,11.348a1.2,1.2,0,0,0,1.979.556c3.088-2.951,6.935.268,10.379-2.52a6.255,6.255,0,0,0,1.807-6.938L72.3,10.342h2.62a2.439,2.439,0,0,1,2.436,2.436V35.643H39.787a1.194,1.194,0,1,0,0,2.389H77.358Z" transform="translate(0 0)" fill="#fabf46"/>
    <path id="Path_56" data-name="Path 56" d="M104,298.447a1.194,1.194,0,1,0,1.4.938A1.193,1.193,0,0,0,104,298.447Z" transform="translate(-69.217 -262.78)" fill="#fabf46"/>
  </g>
</svg>
