<svg xmlns="http://www.w3.org/2000/svg" xmlns:xlink="http://www.w3.org/1999/xlink" width="44.209" height="44.208" viewBox="0 0 44.209 44.208">
  <defs>
    <filter id="Ellipse_2">
      <feOffset dx="3" dy="3" input="SourceAlpha"/>
      <feGaussianBlur stdDeviation="3" result="blur"/>
      <feFlood flood-opacity="0.973" result="color"/>
      <feComposite operator="out" in="SourceGraphic" in2="blur"/>
      <feComposite operator="in" in="color"/>
      <feComposite operator="in" in2="SourceGraphic"/>
    </filter>
  </defs>
  <g id="Group_19" data-name="Group 19" transform="translate(-101.94 -3836.905)">
    <g data-type="innerShadowGroup">
      <circle id="Ellipse_2-2" data-name="Ellipse 2" cx="22.104" cy="22.104" r="22.104" transform="translate(101.94 3836.905)" fill="#005b83"/>
      <g transform="matrix(1, 0, 0, 1, 101.94, 3836.9)" filter="url(#Ellipse_2)">
        <circle id="Ellipse_2-3" data-name="Ellipse 2" cx="22.104" cy="22.104" r="22.104" fill="#fff"/>
      </g>
    </g>
    <path id="Icon_awesome-linkedin-in" data-name="Icon awesome-linkedin-in" d="M5.459,24.389H.4V8.106H5.459ZM2.928,5.885A2.942,2.942,0,1,1,5.857,2.929,2.953,2.953,0,0,1,2.928,5.885Zm21.455,18.5H19.338V16.463c0-1.889-.038-4.312-2.629-4.312-2.629,0-3.032,2.052-3.032,4.176v8.063H8.627V8.106h4.85v2.221h.071A5.313,5.313,0,0,1,18.331,7.7c5.117,0,6.058,3.37,6.058,7.747v8.945Z" transform="translate(111.85 3846.814)" fill="#f5cb5c"/>
  </g>
</svg>
