<svg xmlns="http://www.w3.org/2000/svg" width="59.939" height="46.827" viewBox="0 0 59.939 46.827">
  <g id="Group_8" data-name="Group 8" transform="translate(-140 -1831.041)">
    <g id="html" transform="translate(140 1831.041)">
      <path id="Path_22" data-name="Path 22" d="M56.368,0H3.571A3.575,3.575,0,0,0,0,3.571V43.257a3.575,3.575,0,0,0,3.571,3.571h52.8a3.575,3.575,0,0,0,3.571-3.571V3.571A3.575,3.575,0,0,0,56.368,0ZM57.6,43.257a1.231,1.231,0,0,1-1.229,1.229H3.571a1.231,1.231,0,0,1-1.229-1.229V3.571A1.231,1.231,0,0,1,3.571,2.341h52.8A1.231,1.231,0,0,1,57.6,3.571Zm0,0" transform="translate(0 0)" fill="#fabf46"/>
      <path id="Path_23" data-name="Path 23" d="M179.407,318.173H131.323a1.171,1.171,0,0,0-1.171,1.171v28.1a1.171,1.171,0,0,0,1.171,1.171h13.935a1.171,1.171,0,0,0,0-2.341H132.493V320.514h45.743v25.755H154.662a1.171,1.171,0,0,0,0,2.341h24.744a1.171,1.171,0,0,0,1.171-1.171v-28.1A1.171,1.171,0,0,0,179.407,318.173Zm0,0" transform="translate(-125.395 -306.544)" fill="#fabf46"/>
      <path id="Path_24" data-name="Path 24" d="M580.936,160.358h30.2a1.171,1.171,0,1,0,0-2.341h-30.2a1.171,1.171,0,1,0,0,2.341Zm0,0" transform="translate(-558.576 -152.241)" fill="#fabf46"/>
      <path id="Path_25" data-name="Path 25" d="M162.378,160.367a1.178,1.178,0,0,0,.23-.022,1.2,1.2,0,0,0,.219-.067,1.171,1.171,0,0,0,.379-.254,1.171,1.171,0,0,0,.146-1.477,1.114,1.114,0,0,0-.146-.178,1.093,1.093,0,0,0-.178-.145,1.18,1.18,0,0,0-.2-.107,1.2,1.2,0,0,0-.219-.067,1.163,1.163,0,0,0-.676.067,1.192,1.192,0,0,0-.2.107,1.093,1.093,0,0,0-.178.145,1.133,1.133,0,0,0-.145.178,1.192,1.192,0,0,0-.107.2,1.162,1.162,0,0,0-.067.219,1.13,1.13,0,0,0-.024.228,1.172,1.172,0,0,0,1.171,1.171Zm0,0" transform="translate(-155.315 -152.251)" fill="#fabf46"/>
      <path id="Path_26" data-name="Path 26" d="M289.423,159.657a1.181,1.181,0,0,0,.107.2,1.1,1.1,0,0,0,.145.178,1.177,1.177,0,0,0,1.057.321,1.194,1.194,0,0,0,.219-.067,1.15,1.15,0,0,0,.2-.108,1.188,1.188,0,0,0,.324-.324,1.15,1.15,0,0,0,.108-.2,1.2,1.2,0,0,0,.067-.219,1.2,1.2,0,0,0,0-.458,1.162,1.162,0,0,0-.067-.219,1.2,1.2,0,0,0-.108-.2,1.114,1.114,0,0,0-.146-.178,1.093,1.093,0,0,0-.178-.145,1.18,1.18,0,0,0-.2-.107,1.2,1.2,0,0,0-.219-.067,1.18,1.18,0,0,0-1.057.32,1.137,1.137,0,0,0-.145.178,1.228,1.228,0,0,0-.107.2,1.158,1.158,0,0,0-.067.219,1.112,1.112,0,0,0,0,.458A1.2,1.2,0,0,0,289.423,159.657Zm0,0" transform="translate(-278.758 -152.263)" fill="#fabf46"/>
      <path id="Path_27" data-name="Path 27" d="M417.548,159.645a1.181,1.181,0,0,0,.107.2,1.092,1.092,0,0,0,.145.178,1.076,1.076,0,0,0,.178.146,1.181,1.181,0,0,0,.879.175,1.2,1.2,0,0,0,.219-.067,1.149,1.149,0,0,0,.2-.108,1.075,1.075,0,0,0,.178-.146,1.171,1.171,0,0,0,.254-.379,1.2,1.2,0,0,0,.067-.219,1.176,1.176,0,0,0-.175-.879,1.15,1.15,0,0,0-.146-.178,1.093,1.093,0,0,0-.178-.145,1.179,1.179,0,0,0-.2-.107,1.2,1.2,0,0,0-.219-.067,1.163,1.163,0,0,0-.676.067,1.191,1.191,0,0,0-.2.107,1.15,1.15,0,0,0-.323.323,1.194,1.194,0,0,0-.107.2,1.161,1.161,0,0,0-.067.219,1.112,1.112,0,0,0,0,.458A1.2,1.2,0,0,0,417.548,159.645Zm0,0" transform="translate(-402.2 -152.251)" fill="#fabf46"/>
      <path id="Path_28" data-name="Path 28" d="M328.254,544.94a1.171,1.171,0,0,0-1.651-.128l-6.946,5.948a1.171,1.171,0,0,0,.015,1.791l7.024,5.818a1.171,1.171,0,0,0,1.494-1.8l-5.954-4.931,5.89-5.043A1.172,1.172,0,0,0,328.254,544.94Zm0,0" transform="translate(-307.58 -524.629)" fill="#fabf46"/>
      <path id="Path_29" data-name="Path 29" d="M1024.287,558.168a1.171,1.171,0,0,0,1.65.132l6.946-5.918a1.171,1.171,0,0,0-.015-1.794l-7.024-5.789a1.171,1.171,0,1,0-1.49,1.807l5.946,4.9-5.883,5.012A1.17,1.17,0,0,0,1024.287,558.168Zm0,0" transform="translate(-986.506 -524.63)" fill="#fabf46"/>
      <path id="Path_30" data-name="Path 30" d="M682.431,543.617a1.171,1.171,0,0,0-1.6.411l-6.946,11.746a1.171,1.171,0,1,0,2.015,1.192l6.946-11.746A1.171,1.171,0,0,0,682.431,543.617Zm0,0" transform="translate(-649.095 -523.591)" fill="#fabf46"/>
      <path id="Path_31" data-name="Path 31" d="M642.876,1089.807a1.129,1.129,0,0,0-.108-.2,1.133,1.133,0,0,0-.323-.323,1.127,1.127,0,0,0-.2-.108,1.1,1.1,0,0,0-.219-.067,1.18,1.18,0,0,0-1.056.32,1.107,1.107,0,0,0-.145.178,1.133,1.133,0,0,0-.108.2,1.115,1.115,0,0,0-.067.219,1.157,1.157,0,0,0-.023.228,1.171,1.171,0,0,0,1.171,1.171,1.133,1.133,0,0,0,.228-.022,1.181,1.181,0,0,0,.219-.068,1.128,1.128,0,0,0,.2-.108,1.13,1.13,0,0,0,.323-.323,1.134,1.134,0,0,0,.108-.2,1.117,1.117,0,0,0,.067-.219,1.131,1.131,0,0,0,0-.456A1.115,1.115,0,0,0,642.876,1089.807Zm0,0" transform="translate(-617.211 -1049.28)" fill="#fabf46"/>
    </g>
  </g>
</svg>
