<svg xmlns="http://www.w3.org/2000/svg" xmlns:xlink="http://www.w3.org/1999/xlink" width="44.208" height="44.208" viewBox="0 0 44.208 44.208">
  <defs>
    <filter id="Ellipse_4">
      <feOffset dx="3" dy="3" input="SourceAlpha"/>
      <feGaussianBlur stdDeviation="3" result="blur"/>
      <feFlood flood-opacity="0.973" result="color"/>
      <feComposite operator="out" in="SourceGraphic" in2="blur"/>
      <feComposite operator="in" in="color"/>
      <feComposite operator="in" in2="SourceGraphic"/>
    </filter>
  </defs>
  <g id="Group_17" data-name="Group 17" transform="translate(-243.851 -3836.905)">
    <g data-type="innerShadowGroup">
      <circle id="Ellipse_4-2" data-name="Ellipse 4" cx="22.104" cy="22.104" r="22.104" transform="translate(243.851 3836.905)" fill="#005b83"/>
      <g transform="matrix(1, 0, 0, 1, 243.85, 3836.9)" filter="url(#Ellipse_4)">
        <circle id="Ellipse_4-3" data-name="Ellipse 4" cx="22.104" cy="22.104" r="22.104" fill="#fff"/>
      </g>
    </g>
    <path id="Icon_awesome-twitter" data-name="Icon awesome-twitter" d="M24.141,8.827c.017.239.017.478.017.717a15.582,15.582,0,0,1-15.69,15.69A15.583,15.583,0,0,1,0,22.758a11.407,11.407,0,0,0,1.332.068A11.044,11.044,0,0,0,8.178,20.47a5.524,5.524,0,0,1-5.156-3.824,6.954,6.954,0,0,0,1.041.085,5.832,5.832,0,0,0,1.451-.188,5.515,5.515,0,0,1-4.422-5.412v-.068a5.554,5.554,0,0,0,2.493.7A5.523,5.523,0,0,1,1.878,4.388a15.675,15.675,0,0,0,11.37,5.771A6.225,6.225,0,0,1,13.112,8.9a5.52,5.52,0,0,1,9.544-3.773,10.857,10.857,0,0,0,3.5-1.332,5.5,5.5,0,0,1-2.424,3.039,11.055,11.055,0,0,0,3.175-.854,11.854,11.854,0,0,1-2.766,2.851Z" transform="translate(252.502 3845.97)" fill="#f5cb5c"/>
  </g>
</svg>
