<svg xmlns="http://www.w3.org/2000/svg" width="59.628" height="47.051" viewBox="0 0 59.628 47.051">
  <g id="user-experience" transform="translate(0 -54)">
    <path id="Path_39" data-name="Path 39" d="M33.058,83.5a2.62,2.62,0,1,0,2.617,2.62,2.622,2.622,0,0,0-2.617-2.62Zm0,3.494a.873.873,0,1,1,.87-.873A.873.873,0,0,1,33.058,86.994Z" transform="translate(-26.896 -26.064)" fill="#fabf46"/>
    <path id="Path_40" data-name="Path 40" d="M97.933,83.5a2.62,2.62,0,1,0,2.617,2.62A2.622,2.622,0,0,0,97.933,83.5Zm0,3.494a.873.873,0,1,1,.87-.873A.873.873,0,0,1,97.933,86.994Z" transform="translate(-84.215 -26.064)" fill="#fabf46"/>
    <path id="Path_41" data-name="Path 41" d="M160.937,83.5a2.62,2.62,0,1,0,2.617,2.62A2.622,2.622,0,0,0,160.937,83.5Zm0,3.494a.873.873,0,1,1,.87-.873A.873.873,0,0,1,160.937,86.994Z" transform="translate(-139.882 -26.064)" fill="#fabf46"/>
    <path id="Path_42" data-name="Path 42" d="M254.96,86.12a2.622,2.622,0,0,0-2.617-2.62h-24.41a2.62,2.62,0,0,0,0,5.241h24.41A2.622,2.622,0,0,0,254.96,86.12Zm-2.617.873h-24.41a.873.873,0,0,1,0-1.747h24.41a.873.873,0,0,1,0,1.747Z" transform="translate(-199.075 -26.064)" fill="#fabf46"/>
    <path id="Path_43" data-name="Path 43" d="M275.582,213.454a.873.873,0,1,0-1.429,1.005l2.186,3.108a.874.874,0,0,1-1.43,1l-5.253-7.467a1.458,1.458,0,0,0-1.19-.618h0a1.458,1.458,0,0,0-1.19.617l-5.259,7.466a.874.874,0,1,1-1.43-1l6.222-8.833a1.459,1.459,0,0,0,0-1.676l-5.263-7.483a.874.874,0,1,1,1.429-1.005l4.3,6.118a1.458,1.458,0,0,0,1.19.618h0a1.457,1.457,0,0,0,1.19-.617l4.31-6.119a.874.874,0,0,1,1.429,1.006l-5.272,7.484a1.459,1.459,0,0,0,0,1.676l1.681,2.389a.873.873,0,1,0,1.429-1.005l-1.563-2.221,5.153-7.317a2.621,2.621,0,0,0-4.285-3.018l-4.072,5.781-4.066-5.78a2.621,2.621,0,0,0-4.287,3.015l5.146,7.315-6.1,8.665a2.621,2.621,0,0,0,4.285,3.019l5.022-7.13,5.015,7.128a2.621,2.621,0,0,0,4.287-3.015Z" transform="translate(-228.555 -125.862)" fill="#fabf46"/>
    <path id="Path_44" data-name="Path 44" d="M101.152,196.441a2.623,2.623,0,0,0-2.62,2.62V212.12c0,.892-.254,1.931-2.138,2.88a4.3,4.3,0,0,1-1.956.438,3.782,3.782,0,0,1-2.094-.589c-1.474-.942-1.771-1.737-1.771-2.715v-6.077a.873.873,0,0,0-1.747,0v6.077c0,1.781.771,3.033,2.577,4.187a5.488,5.488,0,0,0,3.042.864,6.021,6.021,0,0,0,2.735-.625c2.086-1.05,3.1-2.5,3.1-4.44V199.061a.873.873,0,0,1,1.747,0V212.12c0,2.625-1.366,4.644-4.061,6a7.751,7.751,0,0,1-3.52.811h-.012a7.272,7.272,0,0,1-3.971-1.139c-2.308-1.475-3.383-3.273-3.383-5.66V199.061a.873.873,0,0,1,1.747,0v2.918a.873.873,0,0,0,1.747,0v-2.918a2.62,2.62,0,0,0-5.241,0v13.072a8.168,8.168,0,0,0,4.19,7.132,8.992,8.992,0,0,0,4.91,1.414h.013a9.481,9.481,0,0,0,4.306-1c4.151-2.09,5.022-5.265,5.022-7.561V199.061A2.623,2.623,0,0,0,101.152,196.441Z" transform="translate(-75.393 -125.852)" fill="#fabf46"/>
    <path id="Path_45" data-name="Path 45" d="M55.261,54H4.367A4.372,4.372,0,0,0,0,58.367V96.683a4.372,4.372,0,0,0,4.367,4.367H55.261a4.372,4.372,0,0,0,4.367-4.367V58.367A4.372,4.372,0,0,0,55.261,54Zm0,45.3H4.367a2.623,2.623,0,0,1-2.62-2.62V66.17H51.01a.873.873,0,1,0,0-1.747H1.747V58.367a2.623,2.623,0,0,1,2.62-2.62H55.261a2.623,2.623,0,0,1,2.62,2.62v6.056h-2.8a.873.873,0,1,0,0,1.747h2.8V96.683A2.623,2.623,0,0,1,55.261,99.3Z" fill="#fabf46"/>
  </g>
</svg>
